# xmcd CD database file
#
# Track frame offsets:
#	150
#	11810
#	20819
#	35566
#	49753
#	62433
#	77067
#	87548
#	102868
#	114987
#	128653
#	143335
#	157604
#	167791
#
# Disc length: 2386 seconds
#
# Revision: 0
# Processed by: cddbd v1.5.2PL0 Copyright (c) Steve Scherf et al.
# Submitted via: CDex 1.70beta2
#
DISCID=a709500e
DTITLE=Gary y su banda furia - Verano 2003(live)
DYEAR=2003
DGENRE=Country
TTITLE0=Ojos negros
TTITLE1=Arboles de la barranca
TTITLE2=Aca entre nos
TTITLE3=El sinaloense
TTITLE4=El despreciado
TTITLE5=Amorcito de mi alma
TTITLE6=Las tres tumbas
TTITLE7=La cabrona
TTITLE8=El ilegal
TTITLE9=El peor de tus antojos
TTITLE10=El abandonado
TTITLE11=Como quieres que te quiera
TTITLE12=La mancha
TTITLE13=La gaviota
EXTD=YEAR: 2003
EXTT0=
EXTT1=
EXTT2=
EXTT3=
EXTT4=
EXTT5=
EXTT6=
EXTT7=
EXTT8=
EXTT9=
EXTT10=
EXTT11=
EXTT12=
EXTT13=
PLAYORDER=
